:SAMPLES-PER-SECOND 30
:FULLY-SPECIFIED
:DEGREES
896
root  -9.928 37.5674 6.44174 137.418 -84.5147 -144.543
RightUpLeg  -17.3498 -4.04762 -4.17059
RightLeg  28.4496 5.03437 2.71935
RightFoot  -5.25433 -0.314706 5.25236
RightToes  -1.33073e-015 0 -3.6325e-017
Spine  13.9427 -3.06074 10.9515
Spine1  6.80338 -1.3972 -0.858553
HEad  3.68924 6.05242 -6.4678
LeftShoulder1  0.0543496 3.35328 -30.0195
LeftArm  2.08072 8.93876 -43.9097
LeftForeArm  18.2214 -18.2616 -5.33933
LeftHand  -0.0458765 4.58043 3.51473
RightShoulder  -0.395784 -4.70395 26.0058
RightArm  10.4985 -9.33896 43.849
RightForeArm  7.4574 8.58359 5.9147
RightHand  -0.215899 1.79941 -3.65854
LeftUpLeg  9.06681 -4.08117 4.33202
LeftLeg  41.0898 2.71516 2.97599
LeftFoot  -16.7004 -0.330372 -8.4267
LeftToes  -1.93726e-010 2.42366e-011 2.16268e-013
897
root  -10.8286 37.7152 5.92838 127.071 -85.0404 -133.708
RightUpLeg  -16.1944 -4.83149 -3.27184
RightLeg  28.9015 4.67574 2.55355
RightFoot  -7.18385 -0.22229 4.7712
RightToes  -1.33073e-015 0 -3.6325e-017
Spine  14.0568 -3.05903 12.1937
Spine1  6.7817 -1.10334 -0.784457
HEad  4.25942 5.16512 -6.01712
LeftShoulder1  0.0698602 3.30824 -29.5598
LeftArm  1.6001 9.26759 -44.5952
LeftForeArm  19.1833 -18.2176 -5.28076
LeftHand  -0.0396269 4.73029 2.86337
RightShoulder  -0.399297 -4.71721 25.9422
RightArm  11.0732 -7.56451 44.2502
RightForeArm  7.05664 9.15998 6.10331
RightHand  -0.255683 2.33529 -4.03933
LeftUpLeg  2.96342 -3.10193 5.62686
LeftLeg  50.5294 3.6144 5.19038
LeftFoot  -5.22452 0.26657 -4.99436
LeftToes  -1.93726e-010 2.42366e-011 2.16268e-013
898
root  -11.721 37.8986 5.49585 117.617 -85.4823 -124.091
RightUpLeg  -14.4013 -5.79572 -2.74586
RightLeg  28.6689 4.72074 2.55124
RightFoot  -8.78696 -0.157953 4.42938
RightToes  -1.33073e-015 0 -3.6325e-017
Spine  14.5733 -3.03232 13.3332
Spine1  6.49761 -0.689425 -0.935758
HEad  4.70182 3.6792 -5.1651
LeftShoulder1  0.0858128 3.26257 -29.5489
LeftArm  3.47783 9.85742 -44.4426
LeftForeArm  19.1855 -19.3414 -4.9235
LeftHand  -0.0332007 4.52633 1.35598
RightShoulder  -0.392565 -4.70159 25.8007
RightArm  12.7379 -6.06436 44.3878
RightForeArm  4.96363 10.8257 6.38297
RightHand  -0.295837 2.45048 -4.59053
LeftUpLeg  -2.3387 -1.55337 6.21872
LeftLeg  57.3472 3.74513 6.70904
LeftFoot  1.04035 0.111944 -0.832276
LeftToes  -1.93726e-010 2.42366e-011 2.16268e-013
899
root  -12.6833 38.2301 5.07935 114.039 -86.3155 -120.586
RightUpLeg  -11.6116 -6.36662 -3.03902
RightLeg  27.0349 4.748 2.3944
RightFoot  -9.96035 -0.121701 4.48714
RightToes  -1.33073e-015 0 -3.6325e-017
Spine  14.8102 -2.83222 13.6176
Spine1  6.50321 -0.220266 -1.77919
HEad  4.97188 3.03594 -5.00116
LeftShoulder1  0.153297 3.06876 -29.0948
LeftArm  4.75017 10.7003 -44.7031
LeftForeArm  18.5581 -20.4268 -4.5834
LeftHand  -0.0355147 4.22643 1.36089
RightShoulder  -0.372902 -4.64254 25.729
RightArm  14.5706 -4.61809 44.6094
RightForeArm  2.92957 13.1273 6.24621
RightHand  -0.314826 3.19758 -4.48996
LeftUpLeg  -6.40558 0.51633 5.79455
LeftLeg  60.5376 1.63708 3.73368
LeftFoot  -0.704807 0.150651 -1.58951
LeftToes  -1.93726e-010 2.42366e-011 2.16268e-013
900
root  -13.6649 38.5083 4.74285 101.085 -87.1784 -107.381
RightUpLeg  -9.09372 -7.3002 -3.39726
RightLeg  25.3927 4.80033 2.23603
RightFoot  -11.1031 -0.084865 4.5039
RightToes  -1.33073e-015 0 -3.6325e-017
Spine  14.6565 -2.74618 13.8813
Spine1  6.36545 -0.0607204 -1.9491
HEad  5.32141 2.06357 -5.16415
LeftShoulder1  0.127896 3.14378 -29.3907
LeftArm  5.00876 11.3208 -44.577
LeftForeArm  18.3096 -20.9562 -4.41712
LeftHand  -0.036237 4.38139 1.60782
RightShoulder  -0.363989 -4.63019 25.2969
RightArm  16.8826 -3.50544 44.8233
RightForeArm  1.14869 16.1646 5.73123
RightHand  -0.32287 2.80416 -4.79102
LeftUpLeg  -10.4913 1.9518 4.79559
LeftLeg  61.0835 0.0603529 0.731735
LeftFoot  -1.29387 0.330826 -3.66085
LeftToes  -1.93726e-010 2.42366e-011 2.16268e-013
901
root  -14.6897 38.786 4.4165 75.5245 -87.6784 -81.4453
RightUpLeg  -6.38169 -8.80916 -3.79426
RightLeg  23.2803 5.35292 2.24904
RightFoot  -12.0196 -0.0549434 4.46923
RightToes  -1.33073e-015 0 -3.6325e-017
Spine  14.1464 -2.50129 14.2112
Spine1  6.3555 0.20927 -2.38748
HEad  5.35135 0.979083 -5.3869
LeftShoulder1  0.175269 3.01145 -29.4727
LeftArm  4.85761 11.4445 -44.5537
LeftForeArm  18.1848 -20.9102 -4.4346
LeftHand  -0.0335666 4.76111 1.72281
RightShoulder  -0.406694 -4.77417 25.0612
RightArm  18.5414 -3.14165 44.5998
RightForeArm  -0.339147 20.371 4.95597
RightHand  -0.300632 2.38514 -4.67902
LeftUpLeg  -14.1614 3.33613 3.56904
LeftLeg  58.9958 -0.696334 -0.709832
LeftFoot  -2.17179 0.29763 -3.55712
LeftToes  -1.93726e-010 2.42366e-011 2.16268e-013
902
root  -15.7311 39.0173 4.11493 37.9328 -87.6055 -43.7483
RightUpLeg  -3.30638 -10.1213 -4.52804
RightLeg  21.1034 5.42712 2.07952
RightFoot  -12.9813 -0.0233692 4.52841
RightToes  -1.33073e-015 0 -3.6325e-017
Spine  14.0155 -2.28064 13.8395
Spine1  6.05612 0.272836 -2.46217
HEad  5.56777 -0.497502 -5.37976
LeftShoulder1  0.17327 3.01771 -29.5126
LeftArm  4.06883 11.9433 -44.7912
LeftForeArm  19.1177 -21.0399 -4.32893
LeftHand  -0.0346031 4.6793 1.55783
RightShoulder  -0.381965 -4.71026 24.6717
RightArm  17.9158 -2.77243 44.3669
RightForeArm  -0.593228 23.3492 5.02216
RightHand  -0.377027 3.60427 -5.12057
LeftUpLeg  -16.8089 4.26453 1.92679
LeftLeg  54.4252 -0.516742 -0.321126
LeftFoot  -3.37436 0.276319 -3.66483
LeftToes  -1.93726e-010 2.42366e-011 2.16268e-013
903
root  -16.7679 39.201 3.85293 12.7211 -86.8381 -18.2039
RightUpLeg  -0.514093 -11.1971 -5.3706
RightLeg  18.9699 5.44161 2.15101
RightFoot  -13.8168 0.00361966 4.49414
RightToes  -1.33073e-015 0 -3.6325e-017
Spine  13.7286 -2.08473 13.7087
Spine1  5.74973 0.461447 -3.43149
HEad  5.64747 -1.39137 -5.22897
LeftShoulder1  0.150079 3.07228 -28.6535
LeftArm  3.28172 12.3308 -45.5181
LeftForeArm  19.393 -20.832 -4.35523
LeftHand  -0.0280368 5.1131 0.551099
RightShoulder  -0.412659 -4.79 25.1506
RightArm  17.1187 -2.0746 43.5647
RightForeArm  0.42767 26.0948 5.5774
RightHand  -0.350507 3.35893 -4.8922
LeftUpLeg  -18.8186 5.38812 0.247989
LeftLeg  47.6445 0.212161 0.672462
LeftFoot  -4.20729 0.219468 -3.12172
LeftToes  -1.93726e-010 2.42366e-011 2.16268e-013
904
root  -17.8072 39.3 3.62452 4.76442 -85.838 -9.79517
RightUpLeg  2.00541 -11.4836 -5.69688
RightLeg  16.9072 4.76178 2.07427
RightFoot  -14.6762 0.0326376 4.54501
RightToes  -1.33073e-015 0 -3.6325e-017
Spine  13.8372 -1.81377 13.6765
Spine1  4.80786 0.655802 -3.93684
HEad  5.66032 -1.986 -4.85291
LeftShoulder1  0.118242 3.16678 -28.93
LeftArm  4.20897 12.8506 -45.065
LeftForeArm  17.8762 -21.2339 -4.33377
LeftHand  -0.0296791 5.17174 1.23537
RightShoulder  -0.370818 -4.66254 24.9988
RightArm  16.0271 -1.81526 43.265
RightForeArm  1.61046 28.133 5.99625
RightHand  -0.312596 3.19289 -4.46647
LeftUpLeg  -20.2525 6.76696 -1.10202
LeftLeg  39.2387 0.716967 0.993286
LeftFoot  -4.65762 0.212948 -3.17182
LeftToes  -1.93726e-010 2.42366e-011 2.16268e-013
905
root  -18.8747 39.4055 3.43071 -1.20917 -85.037 -3.68445
RightUpLeg  5.21091 -11.3049 -6.05162
RightLeg  14.091 3.85616 1.86578
RightFoot  -15.1416 0.0479552 4.52618
RightToes  -1.33073e-015 0 -3.6325e-017
Spine  12.9451 -1.3061 13.2459
Spine1  6.16765 1.03324 -4.27882
HEad  5.05953 -3.23937 -4.44244
LeftShoulder1  0.135557 3.1212 -29.3144
LeftArm  3.82546 12.1912 -44.9769
LeftForeArm  18.004 -20.5424 -4.52465
LeftHand  -0.0320889 4.97922 2.27645
RightShoulder  -0.386266 -4.71482 24.9193
RightArm  15.4274 -0.444802 43.1626
RightForeArm  2.00973 28.7948 6.13477
RightHand  -0.303366 3.54055 -4.17496
LeftUpLeg  -20.1523 8.28534 -2.64257
LeftLeg  28.7037 0.761581 0.873148
LeftFoot  -3.87486 0.249776 -3.45294
LeftToes  -1.93726e-010 2.42366e-011 2.16268e-013
906
root  -19.9566 39.397 3.29252 -0.312683 -83.6427 -4.27405
RightUpLeg  8.14144 -10.9972 -5.81121
RightLeg  11.6294 2.29591 1.74088
RightFoot  -15.8992 0.0892094 4.95489
RightToes  -1.33073e-015 0 -3.6325e-017
Spine  12.4899 -1.28861 12.8835
Spine1  6.59861 0.850158 -4.17116
HEad  4.51885 -2.93471 -4.91446
LeftShoulder1  0.119913 3.1704 -29.8301
LeftArm  3.66926 12.2099 -44.5492
LeftForeArm  18.2818 -20.0749 -4.67346
LeftHand  -0.0390195 4.41593 1.99384
RightShoulder  -0.376024 -4.68942 24.7233
RightArm  15.389 0.847291 43.6311
RightForeArm  1.18161 28.2994 6.0604
RightHand  -0.40298 4.1162 -5.20116
LeftUpLeg  -19.8339 8.84535 -3.54626
LeftLeg  17.9244 0.674155 0.248656
LeftFoot  -2.65542 0.342132 -4.29976
LeftToes  -1.93726e-010 2.42366e-011 2.16268e-013
907
root  -21.0805 39.3367 3.20369 0.336334 -82.67 -4.74213
RightUpLeg  11.0069 -10.7514 -5.60412
RightLeg  9.53781 1.26249 1.72681
RightFoot  -16.5719 0.12798 5.25122
RightToes  -1.33073e-015 0 -3.6325e-017
Spine  12.1119 -1.23978 12.5428
Spine1  7.16489 0.849718 -4.37148
HEad  4.33435 -3.76109 -3.97528
LeftShoulder1  0.133999 3.13009 -29.7388
LeftArm  3.56922 12.4769 -44.5032
LeftForeArm  17.9495 -19.3999 -4.95614
LeftHand  -0.0350324 4.9188 2.38574
RightShoulder  -0.384852 -4.70408 25.0862
RightArm  15.9251 2.16606 43.7754
RightForeArm  0.38772 27.183 5.83758
RightHand  -0.405753 3.81916 -5.37873
LeftUpLeg  -18.9441 5.64651 -2.91041
LeftLeg  7.90491 4.35475 -0.687601
LeftFoot  -2.1798 0.373131 -4.49925
LeftToes  -1.93726e-010 2.42366e-011 2.16268e-013
908
root  -22.2653 39.1879 3.15981 0.579803 -82.3593 -5.24506
RightUpLeg  13.9119 -10.5549 -5.6007
RightLeg  8.38957 1.16956 1.70318
RightFoot  -17.6626 0.197477 5.75521
RightToes  -1.33073e-015 0 -3.6325e-017
Spine  12.5021 -1.05404 11.9736
Spine1  7.42897 1.07931 -4.5113
HEad  4.65786 -3.78145 -3.59769
LeftShoulder1  0.206147 2.92432 -29.4607
LeftArm  2.20655 13.1241 -44.6998
LeftForeArm  19.0165 -18.2418 -5.34247
LeftHand  -0.0233598 5.79321 2.15163
RightShoulder  -0.363656 -4.64038 24.9724
RightArm  16.2987 2.68054 44.4348
RightForeArm  -0.423248 25.7104 5.53834
RightHand  -0.435653 4.68894 -5.30474
LeftUpLeg  -17.9521 1.56827 -1.73621
LeftLeg  0.714465 9.63307 -1.51804
LeftFoot  -1.89294 0.366652 -4.28108
LeftToes  -1.93726e-010 2.42366e-011 2.16268e-013
